Coordinates
version=1
nRows=12
nColumns=24
inDegrees=yes

Units are S.I. units (second, meters, Newtons, ...)
Angles are in degrees.

endheader
time	pelvis_tilt	pelvis_list	pelvis_rotation	pelvis_tx	pelvis_ty	pelvis_tz	hip_flexion_r	hip_adduction_r	hip_rotation_r	knee_angle_r	ankle_angle_r	subtalar_angle_r	mtp_angle_r	hip_flexion_l	hip_adduction_l	hip_rotation_l	knee_angle_l	ankle_angle_l	subtalar_angle_l	mtp_angle_l	lumbar_extension	lumbar_bending	lumbar_rotation
      2.94500000	     -9.65028553	     -5.83805273	      6.97477020	     -1.71107515	     -0.04141175	      0.66774211	     32.54017363	      2.70437692	     -1.46290124	    -36.17881882	      3.95339231	     -2.65774871	     17.54676121	     12.70582778	     -4.48243358	      4.33624658	    -57.99069785	    -29.21618875	      5.30701620	     22.84989064	      7.95413526	     13.33395022	     -9.73322035
      2.95000000	     -9.70771023	     -5.98039973	      6.89123765	     -1.70384865	     -0.04062744	      0.66800131	     32.00189672	      2.93986906	     -1.53603469	    -35.92499694	      4.43474753	     -2.45451706	     17.23239219	     13.86270863	     -4.54202662	      4.19547865	    -59.41770476	    -28.05489886	      6.16844973	     25.25384897	      8.01843847	     13.54260416	     -9.46086908
      2.95500000	     -9.62135928	     -5.97879015	      6.71633173	     -1.69670657	     -0.03951161	      0.66838197	     31.28049405	      3.11454344	     -1.41882581	    -35.62203027	      4.80761317	     -2.25771309	     17.27966352	     14.78544078	     -4.49084994	      3.93860966	    -60.65573088	    -26.95948027	      6.98147643	     27.82698364	      7.85784986	     13.63134501	     -9.05573175
      2.96000000	     -9.56715477	     -5.96367146	      6.56281703	     -1.68955401	     -0.03835058	      0.66871369	     30.56304174	      3.25023652	     -1.32860712	    -35.26619155	      5.16155589	     -2.07809645	     17.37869674	     15.74897282	     -4.41863533	      3.68658417	    -61.83395746	    -25.80845368	      7.70705988	     29.93593933	      7.75064525	     13.69210334	     -8.67224104
      2.96500000	     -9.50941571	     -5.93066476	      6.41798688	     -1.68242124	     -0.03712304	      0.66902938	     29.81972574	      3.35811491	     -1.26101218	    -34.86987141	      5.49078169	     -1.95093412	     17.40368025	     16.71269995	     -4.33083153	      3.42836983	    -62.96813458	    -24.56512877	      8.37411789	     31.30850598	      7.64178536	     13.72851669	     -8.25582433
      2.97000000	     -9.45962579	     -5.94659620	      6.27891994	     -1.67530380	     -0.03587428	      0.66938329	     29.06216194	      3.51629304	     -1.18085172	    -34.41997442	      5.79468134	     -1.83125198	     17.31920091	     17.70109779	     -4.32128780	      3.15083959	    -64.03345054	    -23.52089788	      8.79973558	     32.56435566	      7.55526469	     13.80628407	     -7.91062947
      2.97500000	     -9.41125934	     -5.93190160	      6.14009991	     -1.66818000	     -0.03458127	      0.66974213	     28.27604697	      3.64658411	     -1.05062070	    -33.92399433	      6.10225412	     -1.70867664	     17.25979658	     18.68054279	     -4.28497006	      2.86178104	    -65.03136162	    -22.54956248	      9.05574059	     33.24571905	      7.47466248	     13.84094013	     -7.59992151
      2.98000000	     -9.35700700	     -5.96015349	      6.02153752	     -1.66108621	     -0.03326485	      0.67004180	     27.46562019	      3.79864278	     -0.98112408	    -33.37777354	      6.36221240	     -1.58701681	     17.22029229	     19.66982735	     -4.29923340	      2.57383323	    -65.96748113	    -21.80905579	      8.95711577	     33.64481908	      7.39585987	     13.92145393	     -7.28633394
      2.98500000	     -9.32487893	     -6.00176778	      5.89745648	     -1.65397164	     -0.03196495	      0.67042890	     26.65861557	      3.98218786	     -0.86635570	    -32.79206202	      6.56998057	     -1.57378444	     17.11764979	     20.67198180	     -4.34093709	      2.30679152	    -66.82394083	    -21.18610063	      8.77775627	     33.89343588	      7.34997642	     13.99835718	     -6.98490677
      2.99000000	     -9.32955972	     -6.05730836	      5.74489133	     -1.64684190	     -0.03070391	      0.67093038	     25.87745648	      4.21468444	     -0.67801356	    -32.17794611	      6.69964605	     -1.76277852	     16.80212649	     21.70466536	     -4.42054865	      2.00945242	    -67.61847065	    -20.62921003	      8.40583736	     33.74070111	      7.34612449	     14.07569098	     -6.66685937
      2.99500000	     -9.31014551	     -6.08069536	      5.60313080	     -1.63971663	     -0.02942810	      0.67136126	     25.05351876	      4.39725091	     -0.49367374	    -31.54537600	      6.89252269	     -1.81963209	     16.52023886	     22.69758558	     -4.46617178	      1.68799421	    -68.33651078	    -20.17674766	      7.76008399	     33.19212199	      7.31337508	     14.12105838	     -6.39119942
      3.00000000	     -9.29456947	     -6.10655191	      5.43719423	     -1.63253773	     -0.02816758	      0.67176370	     24.21578586	      4.58285705	     -0.27743847	    -30.89059829	      7.11422057	     -1.77482987	     16.09742826	     23.67228755	     -4.51783149	      1.36559590	    -69.00361434	    -19.57034060	      7.15609336	     32.01094319	      7.28808290	     14.17747347	     -6.06166996
